# xmcd
#
# Track frame offsets: 
#        150
#        10224
#        25931
#        35605
#        45292
#        64939
#        85641
#        96918
#        108844
#        123219
#        138303
#        152827
#        163674
#        182157
#        195666
#        205700
#        219172
#        232889
#        246991
#        258527
#        266339
#
# Disc length: 3724 seconds
#
# Revision: 0
# Processed by: cddbd v1.5.2PL0 Copyright (c) Steve Scherf et al.
# Submitted via: ExactAudioCopy v0.95b4
#
DISCID=130e8a15
DTITLE=Screamin' Jay Hawkins - Feast of the Mau Mau
DYEAR=1900
DGENRE=Blues
TTITLE0=What That Is!
TTITLE1=Feast of the Mau Mau
TTITLE2=Do You Really Love Me?
TTITLE3=Stone Crazy
TTITLE4=I Love You
TTITLE5=Constipation Blues
TTITLE6=I'm Lonely
TTITLE7=Thing Called Woman
TTITLE8=Dig!
TTITLE9=I'm Your Man
TTITLE10=Ask Him
TTITLE11=Reprise
TTITLE12=Please Don't Leave Me
TTITLE13=I Wanta Know
TTITLE14=I Need You
TTITLE15=My Marion
TTITLE16=Bite It
TTITLE17=Move Me
TTITLE18=Goodnight My Love
TTITLE19=Our Love Is Not For 3
TTITLE20=Ain't Nobody's Business
EXTD=
EXTT0=
EXTT1=
EXTT2=
EXTT3=
EXTT4=
EXTT5=
EXTT6=
EXTT7=
EXTT8=
EXTT9=
EXTT10=
EXTT11=
EXTT12=
EXTT13=
EXTT14=
EXTT15=
EXTT16=
EXTT17=
EXTT18=
EXTT19=
EXTT20=
PLAYORDER=
